<svg xmlns="http://www.w3.org/2000/svg" viewBox="0 0 24 24" fill="#0094F5">
  <path d="M12 .5C5.649.5.5 5.649.5 12S5.649 23.5 12 23.5 23.5 18.351 23.5 12 18.351.5 12 .5zm-.595 5.962h1.19c.357 0 .595.238.595.595v4.048c0 .119.06.238.18.297l.951.476c.298.179.357.536.179.833l-.595 1.012c-.179.298-.536.357-.834.179l-2.321-1.31c-.179-.119-.298-.298-.298-.535V7.057c0-.357.238-.595.595-.595h.358zm0 11.076c-3.214 0-5.843-2.629-5.843-5.843V8.481c0-.357.238-.595.595-.595h1.19c.358 0 .596.238.596.595v3.214c0 1.905 1.548 3.453 3.462 3.453 1.905 0 3.453-1.548 3.453-3.453V8.481c0-.357.238-.595.595-.595h1.19c.358 0 .596.238.596.595v3.214c0 3.214-2.62 5.843-5.834 5.843z"/>
</svg>
