<svg xmlns="http://www.w3.org/2000/svg" viewBox="0 0 24 24" fill="#F06A6A">
  <path d="M18.782 12.3c-2.883 0-5.218 2.336-5.218 5.218 0 2.882 2.335 5.217 5.218 5.217 2.882 0 5.218-2.335 5.218-5.217 0-2.882-2.336-5.218-5.218-5.218zm-13.564 0c-2.882 0-5.218 2.336-5.218 5.218C0 20.4 2.336 22.735 5.218 22.735c2.883 0 5.218-2.335 5.218-5.217 0-2.882-2.335-5.218-5.218-5.218zM17.218 5.218c0 2.882-2.336 5.217-5.218 5.217-2.883 0-5.218-2.335-5.218-5.217C6.782 2.336 9.117 0 12 0c2.882 0 5.218 2.336 5.218 5.218z"/>
</svg>
