<svg xmlns="http://www.w3.org/2000/svg" viewBox="0 0 24 24" fill="#006BFF">
  <path d="M19.655 14.262c.281-.207.583-.45.856-.71.293-.277.53-.567.71-.856.188-.303.283-.602.283-.894 0-.293-.095-.592-.283-.895-.18-.289-.417-.579-.71-.856-.273-.26-.575-.503-.856-.71-.304-.223-.604-.395-.894-.517-.304-.129-.588-.193-.85-.193s-.547.064-.85.193c-.29.122-.59.294-.894.517-.281.207-.583.45-.856.71-.293.277-.53.567-.71.856-.188.303-.283.602-.283.895 0 .292.095.591.283.894.18.289.417.579.71.856.273.26.575.503.856.71.304.223.604.395.894.517.303.129.588.193.85.193s.546-.064.85-.193c.29-.122.59-.294.894-.517z"/>
  <path d="M12 0C5.373 0 0 5.373 0 12s5.373 12 12 12 12-5.373 12-12S18.627 0 12 0zm7.568 16.03c-.29.6-.69 1.136-1.19 1.596-.5.46-1.085.825-1.745 1.086-.66.26-1.367.39-2.113.39-.51 0-1.008-.062-1.487-.187-.48-.125-.93-.302-1.346-.53-.416-.228-.795-.5-1.133-.817-.339-.317-.623-.665-.851-1.044-.228-.378-.402-.782-.517-1.208-.115-.427-.172-.87-.172-1.316 0-.447.057-.89.172-1.316.115-.427.289-.83.517-1.208.228-.38.512-.727.85-1.044.339-.317.718-.589 1.134-.817.416-.228.866-.405 1.346-.53.48-.125.977-.187 1.487-.187.746 0 1.453.13 2.113.39.66.261 1.245.626 1.745 1.086.5.46.9.996 1.19 1.596.29.6.434 1.247.434 1.93 0 .684-.145 1.33-.434 1.93z"/>
</svg>
