<svg xmlns="http://www.w3.org/2000/svg" viewBox="0 0 24 24" fill="#00A82D">
  <path d="M8.222 5.393c0 .239-.03.468-.09.687-.06.22-.15.415-.27.585-.12.17-.27.312-.45.425s-.39.185-.63.215v-.02c.24-.03.45-.105.63-.225.18-.12.33-.27.45-.45.12-.18.21-.38.27-.6.06-.22.09-.44.09-.66v-2.1h-.75v2.1c0 .16-.015.315-.045.465-.03.15-.075.285-.135.405-.06.12-.135.225-.225.315-.09.09-.195.165-.315.225-.12.06-.255.105-.405.135-.15.03-.31.045-.48.045h-.3v.75h.3c.21 0 .42-.02.63-.06.21-.04.41-.105.6-.195.19-.09.36-.205.51-.345.15-.14.28-.305.39-.495.11-.19.195-.4.255-.63.06-.23.09-.48.09-.75v-2.85h-1.5v3.6l-.03.03z"/>
</svg>
