<svg xmlns="http://www.w3.org/2000/svg" viewBox="0 0 24 24" fill="#5E6AD2">
  <path d="M3.558 14.395L.65 11.487a1.25 1.25 0 010-1.768l2.908-2.908a12.036 12.036 0 000 7.584zm6.047 6.047a12.036 12.036 0 01-7.584 0l2.908-2.908a12.036 12.036 0 007.584 0l2.908 2.908a12.036 12.036 0 01-7.584 0zm7.838-6.047l2.908 2.908a1.25 1.25 0 010 1.768l-2.908 2.908a12.036 12.036 0 000-7.584zM9.605 3.558a12.036 12.036 0 017.584 0L14.28 6.466a12.036 12.036 0 00-7.584 0L3.79 3.558a12.036 12.036 0 017.584 0zM12 15a3 3 0 100-6 3 3 0 000 6z"/>
</svg>
