<svg xmlns="http://www.w3.org/2000/svg" viewBox="0 0 24 24" fill="#0078D4">
  <path d="M24 7.387v10.478c0 .23-.08.424-.238.576-.158.152-.357.228-.595.228h-8.16v-6.324l1.195.895c.158.12.334.18.526.18.193 0 .368-.06.527-.18l5.549-4.14c.16-.12.273-.25.34-.39.065-.14.098-.28.098-.42v-.24c0-.12-.033-.21-.098-.27-.066-.06-.132-.09-.2-.09h-.15c-.095 0-.22.04-.375.12l-5.73 4.275-1.68-1.26V5.878h8.295c.238 0 .437.078.595.234.158.156.237.35.237.576v.698zM14.192 4.5V5.87H7.713l6.479 4.842v6.967h-8.2V8.064l-4.32 3.228-.705-.707 5.025-3.755V5.88H0v11.792c0 .238.08.437.238.595.157.158.357.237.595.237h13.5c.237 0 .437-.08.594-.237.158-.158.237-.357.237-.595V4.5h-.972z"/>
</svg>
