<svg xmlns="http://www.w3.org/2000/svg" viewBox="0 0 24 24" fill="#3A76F0">
  <path d="M12 0C5.373 0 0 5.373 0 12c0 2.917 1.043 5.59 2.775 7.669l-.792 2.897a1.5 1.5 0 001.836 1.836l2.897-.792A11.94 11.94 0 0012 24c6.627 0 12-5.373 12-12S18.627 0 12 0zm5.636 16.364c-.25.25-.655.25-.904 0L12 11.632l-4.732 4.732c-.25.25-.655.25-.904 0-.25-.25-.25-.655 0-.904L11.096 10.728 6.364 5.996c-.25-.25-.25-.655 0-.904.25-.25.655-.25.904 0L12 9.824l4.732-4.732c.25-.25.655-.25.904 0 .25.25.25.655 0 .904L12.904 10.728l4.732 4.732c.25.25.25.655 0 .904z"/>
</svg>
