<svg xmlns="http://www.w3.org/2000/svg" viewBox="0 0 24 24" fill="#6264A7">
  <path d="M20.625 8.073h-5.77v10.478a1.378 1.378 0 01-1.378 1.378H9.61a5.325 5.325 0 003.39 1.221h5.25a2.625 2.625 0 002.625-2.625v-8.077a2.375 2.375 0 00-2.375-2.375h2.125zM17.75 2.85a2.4 2.4 0 11-4.8 0 2.4 2.4 0 014.8 0zM12.478 6.45H5.522A2.522 2.522 0 003 8.973v7.054a2.522 2.522 0 002.522 2.523h6.956a2.522 2.522 0 002.522-2.523V8.973a2.522 2.522 0 00-2.522-2.522zM9 7.95a1.65 1.65 0 110 3.3 1.65 1.65 0 010-3.3zm3.75 8.1H5.25v-.75a1.5 1.5 0 011.5-1.5h4.5a1.5 1.5 0 011.5 1.5v.75z"/>
</svg>
