<svg xmlns="http://www.w3.org/2000/svg" viewBox="0 0 24 24" fill="#E44332">
  <path d="M21 0H3C1.35 0 0 1.35 0 3v18c0 1.65 1.35 3 3 3h18c1.65 0 3-1.35 3-3V3c0-1.65-1.35-3-3-3zM10.68 17.19l-4.24-2.65a.42.42 0 01-.14-.58l.9-1.42c.13-.2.39-.27.59-.14l2.89 1.81 6.57-4.11c.2-.13.46-.06.59.14l.9 1.43a.42.42 0 01-.14.57l-7.33 4.59a.66.66 0 01-.59.06V17.19zm0-6l-4.24-2.66a.42.42 0 01-.14-.57l.9-1.43c.13-.2.39-.26.59-.13l2.89 1.81 6.57-4.11c.2-.13.46-.06.59.13l.9 1.43a.42.42 0 01-.14.58l-7.33 4.59a.66.66 0 01-.59.06V11.19z"/>
</svg>
